<?xml version="1.0" encoding="UTF-8"?>
<svg version="1.1" xmlns="http://www.w3.org/2000/svg" width="2100" height="2100">
<path d="M0 0 C693 0 1386 0 2100 0 C2100 693 2100 1386 2100 2100 C1407 2100 714 2100 0 2100 C0 1407 0 714 0 0 Z " fill="#058E44" transform="translate(0,0)"/>
<path d="M0 0 C0.84304688 0.36738281 1.68609375 0.73476563 2.5546875 1.11328125 C19.92412244 9.18757129 34.76720822 22.19798253 44 39 C38.29211492 42.44834362 32.57216739 45.87590502 26.84521484 49.29248047 C24.08093672 50.95142686 21.33090728 52.63209768 18.58203125 54.31640625 C16.888419 55.33659878 15.19442371 56.35615578 13.5 57.375 C12.7061792 57.86911377 11.9123584 58.36322754 11.09448242 58.87231445 C10.35174072 59.31406006 9.60899902 59.75580566 8.84375 60.2109375 C8.19599609 60.60587402 7.54824219 61.00081055 6.88085938 61.40771484 C5 62 5 62 2.85571289 61.23168945 C0.57324831 59.71675276 -0.53540459 58.08166223 -2.0625 55.8125 C-9.21770263 46.28244425 -21.57898963 40.33163281 -33.20703125 38.3125 C-49.71224503 36.46576279 -67.43702972 38.81437015 -81 49 C-94.11287934 59.71683826 -100.69238032 72.22486119 -102.625 89 C-104.15728896 107.13672933 -101.08395371 125.82971104 -89.1875 140.1875 C-76.90278478 153.26477749 -60.646031 157.7791457 -43.1875 158.375 C-28.61008777 158.09934259 -14.70772349 153.66982773 -4 143.4375 C-1.28491453 140.50334895 0.92090769 137.4097114 3 134 C7.01591869 135.48867156 10.61812482 137.39133154 14.33203125 139.51953125 C14.92747238 139.85997971 15.52291351 140.20042816 16.13639832 140.55119324 C17.39202237 141.26998232 18.64675315 141.99033385 19.90063477 142.7121582 C21.79429997 143.80202528 23.69082363 144.88677045 25.58789062 145.97070312 C31.8017999 149.52951993 37.9635992 153.14488331 44 157 C33.81279527 177.95177693 12.97586222 192.3276957 -8.5625 199.8125 C-11.03501828 200.56390186 -13.5140487 201.2943106 -16 202 C-17.01320313 202.3196875 -18.02640625 202.639375 -19.0703125 202.96875 C-46.12586095 210.29205635 -76.04915498 204.34522293 -100.24609375 191.2421875 C-125.04520067 176.11649108 -141.28675703 153.41120339 -148.3125 125.4375 C-155.24152301 96.40577068 -151.18224399 65.77124556 -136 40 C-133.17923098 35.84501249 -130.15825056 31.90296713 -127 28 C-126.07767578 26.82824219 -126.07767578 26.82824219 -125.13671875 25.6328125 C-95.65409472 -9.84734746 -41.01301409 -18.5643866 0 0 Z " fill="#000100" transform="translate(966,926)"/>
<path d="M0 0 C0 13.53 0 27.06 0 41 C32.67 41 65.34 41 99 41 C99 54.86 99 68.72 99 83 C66.33 83 33.66 83 0 83 C0.0825 92.301875 0.165 101.60375 0.25 111.1875 C0.26579102 114.11778076 0.28158203 117.04806152 0.29785156 120.06713867 C0.32721875 122.39243555 0.35804407 124.71771468 0.390625 127.04296875 C0.39231689 128.85069763 0.39231689 128.85069763 0.39404297 130.69494629 C0.4138623 131.8515979 0.43368164 133.00824951 0.45410156 134.19995117 C0.46298401 135.20144699 0.47186646 136.20294281 0.48101807 137.23478699 C1.13940518 140.74277153 2.57105653 142.43253996 5 145 C9.60736453 147.78664348 15.0741931 147.44665668 20.3125 147.625 C25.1078125 147.810625 25.1078125 147.810625 30 148 C30 161.2 30 174.4 30 188 C9.5781209 190.04218791 -12.29344278 191.07057831 -30 179 C-37.71644919 172.05275382 -41.97641498 162.086582 -44 152 C-44.08770545 149.73868847 -44.11765497 147.47492202 -44.11352539 145.21191406 C-44.11364593 144.52749111 -44.11376646 143.84306816 -44.11389065 143.13790512 C-44.11314643 140.93044494 -44.10554063 138.72307001 -44.09765625 136.515625 C-44.09618531 135.14957724 -44.09516554 133.78352891 -44.09460449 132.41748047 C-44.08936924 127.36164503 -44.07540799 122.30582167 -44.0625 117.25 C-44.041875 105.9475 -44.02125 94.645 -44 83 C-73.04 83 -102.08 83 -132 83 C-132 69.14 -132 55.28 -132 41 C-102.96 41 -73.92 41 -44 41 C-44 31.76 -44 22.52 -44 13 C-38.10325961 10.64130384 -32.61155612 8.45586156 -26.6015625 6.640625 C-25.95931732 6.44652039 -25.31707214 6.25241577 -24.65536499 6.0524292 C-23.32024187 5.65035647 -21.98443297 5.25055394 -20.64794922 4.85302734 C-18.60540883 4.24416001 -16.5663674 3.62443628 -14.52734375 3.00390625 C-13.21894501 2.61132864 -11.91035787 2.21937826 -10.6015625 1.828125 C-9.42932129 1.4765332 -8.25708008 1.12494141 -7.04931641 0.76269531 C-4 0 -4 0 0 0 Z " fill="#FCFEFE" transform="translate(1166,939)"/>
<path d="M0 0 C16.17 0 32.34 0 49 0 C56.01552775 19.08636227 62.98774658 38.1881606 69.93791199 57.29841232 C70.62601337 59.19028618 71.31427082 61.0821032 72.00256348 62.97390747 C73.30686213 66.55925878 74.61057001 70.14482429 75.9140625 73.73046875 C76.31152679 74.82299957 76.70899109 75.9155304 77.11849976 77.04116821 C77.66626572 78.54869156 77.66626572 78.54869156 78.22509766 80.08666992 C78.54499664 80.96659103 78.86489563 81.84651215 79.19448853 82.75309753 C79.81867624 84.49421354 80.41509871 86.24529612 81 88 C81.1952124 87.36425049 81.3904248 86.72850098 81.59155273 86.07348633 C85.13617875 74.53315421 88.68712205 62.99495728 92.27587891 51.46826172 C97.60819225 34.33900461 102.81143004 17.17343579 108 0 C123.84 0 139.68 0 156 0 C151.05976334 14.948379 145.99541744 29.83510891 140.70431519 44.66244507 C138.83258511 49.90844399 136.96888351 55.1572927 135.10546875 60.40625 C134.56065605 61.94051888 134.56065605 61.94051888 134.00483704 63.50578308 C131.26966517 71.21761032 128.58521963 78.94517077 125.9375 86.6875 C121.98421346 98.20494897 117.98013004 109.70439319 113.93069458 121.18838501 C113.24048387 123.14919955 112.55277609 125.11089739 111.8678894 127.07357788 C102.37407022 154.26123903 91.83197371 183.52136072 65 198 C50.40604222 205.00957053 38.66182493 206 22 206 C22 192.14 22 178.28 22 164 C29.425 163.01 29.425 163.01 37 162 C40.26688705 160.74047728 43.0009792 159.63699216 46 158 C46.69738281 157.71125 47.39476562 157.4225 48.11328125 157.125 C50.49098781 155.70723708 50.93521958 154.52828712 52 152 C52.43699219 151.21882813 52.87398437 150.43765625 53.32421875 149.6328125 C53.77410156 148.80523438 54.22398438 147.97765625 54.6875 147.125 C55.14511719 146.30257813 55.60273437 145.48015625 56.07421875 144.6328125 C58.08554126 138.9128489 55.1390123 133.43278449 52.88671875 128.1328125 C52.5655307 127.36259766 52.24434265 126.59238281 51.91342163 125.79882812 C50.84405132 123.23835594 49.765742 120.68174743 48.6875 118.125 C47.92377033 116.30088107 47.1606821 114.47649346 46.39819336 112.65185547 C44.77533247 108.77053044 43.14909177 104.89064575 41.52050781 101.01171875 C39.02060932 95.05416373 36.53570186 89.09043997 34.0546875 83.125 C33.22412708 81.12841548 32.39356066 79.13183345 31.56298828 77.13525391 C31.15066956 76.14406555 30.73835083 75.1528772 30.3135376 74.13165283 C24.81851205 60.92530782 19.30918721 47.72511271 13.765625 34.5390625 C12.92437017 32.53630717 12.08314245 30.53354046 11.24194336 28.53076172 C9.65485904 24.75236574 8.06398152 20.97559764 6.47094727 17.19970703 C5.75783856 15.50298713 5.04485909 13.80621291 4.33203125 12.109375 C4.00700623 11.34194977 3.6819812 10.57452454 3.34710693 9.78384399 C1.98005963 6.52193709 0.86035487 3.44141947 0 0 Z " fill="#000100" transform="translate(1384,980)"/>
<path d="M0 0 C0 13.86 0 27.72 0 42 C-4.29 42.66 -8.58 43.32 -13 44 C-18.61832469 45.90158682 -22.42940183 47.94146671 -25.1875 53.3125 C-26.27487221 56.6648484 -26.27487221 56.6648484 -27 63 C-18.09 63 -9.18 63 0 63 C0 77.19 0 91.38 0 106 C-8.91 106 -17.82 106 -27 106 C-27 140.32 -27 174.64 -27 210 C-41.52 210 -56.04 210 -71 210 C-71 175.35 -71 140.7 -71 105 C-77.6 105 -84.2 105 -91 105 C-91 91.14 -91 77.28 -91 63 C-84.4 63 -77.8 63 -71 63 C-71.0825 60.628125 -71.165 58.25625 -71.25 55.8125 C-71.39918142 41.32565516 -65.73265989 26.2098542 -55.703125 15.546875 C-39.54762858 0.87353422 -21.50313086 0 0 0 Z " fill="#000100" transform="translate(1378,917)"/>
<path d="M0 0 C2.96372414 1.48186207 5.23413547 2.79435548 7.84375 4.73046875 C8.95592896 5.55248779 8.95592896 5.55248779 10.09057617 6.39111328 C10.88568604 6.9839209 11.6807959 7.57672852 12.5 8.1875 C13.33442627 8.80608887 14.16885254 9.42467773 15.02856445 10.06201172 C23.57344314 16.40507892 32.08456909 22.79343197 40.58984375 29.18945312 C42.98481172 30.98859033 45.38250747 32.78402419 47.78125 34.578125 C48.52608643 35.1354834 49.27092285 35.6928418 50.03833008 36.26708984 C51.43879049 37.31484996 52.83964987 38.3620771 54.2409668 39.40869141 C58.88813347 42.88813347 58.88813347 42.88813347 60 44 C60.09695318 46.16426174 60.12186765 48.33175253 60.12025452 50.4981842 C60.12110894 51.18507543 60.12196337 51.87196665 60.12284368 52.57967275 C60.12450045 54.89827455 60.11897393 57.21680517 60.11352539 59.53540039 C60.11324354 61.19069924 60.11340122 62.84599822 60.1139679 64.501297 C60.11425594 69.00936933 60.10835819 73.51741529 60.10139394 78.02548146 C60.09516145 82.73137737 60.09455668 87.43727382 60.09336853 92.14317322 C60.0902549 101.06088634 60.08204109 109.97858727 60.07201904 118.89629501 C60.06085888 129.04606297 60.0553477 139.1958315 60.05032361 149.34560406 C60.0398585 170.23041104 60.02151264 191.11520128 60 212 C40.2 212 20.4 212 0 212 C0 142.04 0 72.08 0 0 Z " fill="#FCFEFD" transform="translate(720,913)"/>
<path d="M0 0 C0 64.35 0 128.7 0 195 C-17.82 195 -35.64 195 -54 195 C-54.02750403 179.72915203 -54.05101739 164.45836047 -54.0625 149.1875 C-54.06335602 148.05712814 -54.06421204 146.92675629 -54.06509399 145.76213074 C-54.08527528 115.58774197 -54.0045854 85.4205704 -53.5 55.25 C-53.48804218 54.53442806 -53.47608437 53.81885612 -53.46376419 53.08160019 C-53.32286198 44.72079431 -53.16817215 36.36030256 -53 28 C-49.37 26.35 -45.74 24.7 -42 23 C-41.67 47.75 -41.34 72.5 -41 98 C-38.36 98.66 -35.72 99.32 -33 100 C-33.00785522 98.62678589 -33.00785522 98.62678589 -33.01586914 97.22583008 C-33.05902936 88.37252248 -33.05866687 79.52036944 -33.01881409 70.66703796 C-32.99557835 64.69384199 -33.02198876 58.72275808 -33.07398987 52.74977112 C-33.09999839 48.64719295 -33.08729699 44.54529791 -33.06613159 40.44271851 C-33.06371549 38.44334613 -33.07710013 36.44389069 -33.10647583 34.44473267 C-33.32473116 18.56934656 -33.32473116 18.56934656 -29.99560547 14.62548828 C-26.98052126 12.88989683 -24.48273031 12 -21 12 C-21 42.69 -21 73.38 -21 105 C-18.03 105.495 -18.03 105.495 -15 106 C-14.01 106.33 -13.02 106.66 -12 107 C-12.00523682 105.93531494 -12.01047363 104.87062988 -12.01586914 103.77368164 C-12.06143951 93.34515133 -12.05815857 82.91747957 -12.01881409 72.48892212 C-11.999223 66.44383434 -12.00492963 60.39997552 -12.046875 54.35498047 C-12.09189643 47.84693925 -12.09251985 41.34012818 -12.06613159 34.83200073 C-12.06371273 32.27965932 -12.07713301 29.72725323 -12.10647583 27.17507935 C-12.14518403 23.573632 -12.12775207 19.97643964 -12.09765625 16.375 C-12.13451538 14.75754128 -12.13451538 14.75754128 -12.17211914 13.10740662 C-12.114526 10.13753524 -11.99542222 7.80057716 -11 5 C-7.90598152 2.20680521 -4.25983446 0 0 0 Z " fill="#F7FDFA" transform="translate(693,930)"/>
<path d="M0 0 C14.85 0 29.7 0 45 0 C45 32.01 45 64.02 45 97 C30.15 97 15.3 97 0 97 C0 64.99 0 32.98 0 0 Z " fill="#000401" transform="translate(1033,1030)"/>
<path d="M0 0 C14.52 0 29.04 0 44 0 C44 32.01 44 64.02 44 97 C29.48 97 14.96 97 0 97 C0 64.99 0 32.98 0 0 Z " fill="#000200" transform="translate(1221,1030)"/>
<path d="M0 0 C0 67.65 0 135.3 0 205 C-3.96 205 -7.92 205 -12 205 C-12.07106874 161.72801915 -11.90707444 118.46216919 -11.55461788 75.19168437 C-11.49207365 67.50003455 -11.43259295 59.80836172 -11.37324238 52.1166867 C-11.25199261 36.41109867 -11.12730009 20.70554024 -11 5 C-9.54462432 4.16151196 -8.08559627 3.32936066 -6.625 2.5 C-5.81289063 2.0359375 -5.00078125 1.571875 -4.1640625 1.09375 C-2 0 -2 0 0 0 Z " fill="#F4FCF9" transform="translate(711,920)"/>
<path d="M0 0 C7.39721917 4.11923577 12.1932006 9.19640203 14.625 17.4375 C15.9484266 26.63464648 13.93158612 33.83251989 8.625 41.4375 C6.17830753 43.94350623 3.67458119 45.73332228 0.625 47.4375 C-1.0146875 48.365625 -1.0146875 48.365625 -2.6875 49.3125 C-10.30265895 51.63576883 -16.41561346 51.24864437 -23.6875 47.9375 C-30.93460847 43.93844792 -35.36274292 38.44159174 -37.89453125 30.5546875 C-39.74438665 22.40329215 -38.19543557 16.45075309 -34.21875 9.14453125 C-31.51587006 5.17610795 -28.49055409 2.82150999 -24.375 0.4375 C-23.01375 -0.490625 -23.01375 -0.490625 -21.625 -1.4375 C-14.06187829 -4.05550367 -7.20746587 -3.35272666 0 0 Z " fill="#FAFDFC" transform="translate(1067.375,916.5625)"/>
<path d="M0 0 C6.41108963 3.98051169 12.216452 8.77707062 14.1328125 16.32421875 C15.23034045 24.93114845 15.01734719 32.02696492 9.90234375 39.23828125 C4.46703908 45.64546159 -1.03186768 49.53566202 -9.46875 50.67578125 C-16.61960147 51.05850288 -22.01361002 49.45263625 -27.8671875 45.32421875 C-33.5694268 40.19112952 -37.4423505 34.76907591 -38.1796875 27.0546875 C-38.5077298 17.42869631 -37.10418365 11.67104589 -30.6796875 4.57421875 C-21.99540969 -3.48316851 -10.68688109 -5.45835325 0 0 Z " fill="#FAFEFC" transform="translate(1254.8671875,916.67578125)"/>
<path d="M0 0 C0 33.33 0 66.66 0 101 C-3.96 101 -7.92 101 -12 101 C-12.13177739 68.31718109 -11.85566264 35.67220341 -11 3 C-9.73160474 2.49384702 -8.46016898 1.99530901 -7.1875 1.5 C-6.12595703 1.08234375 -6.12595703 1.08234375 -5.04296875 0.65625 C-3 0 -3 0 0 0 Z " fill="#FCFEFE" transform="translate(631,1024)"/>
<path d="M0 0 C0 29.7 0 59.4 0 90 C-3.96 90 -7.92 90 -12 90 C-12.0720864 71.30759587 -11.8692766 52.62618733 -11.53643799 33.93743896 C-11.47446483 30.42967504 -11.41509923 26.92186689 -11.35546875 23.4140625 C-11.23943092 16.60933142 -11.12066806 9.80465051 -11 3 C-9.73160474 2.49384702 -8.46016898 1.99530901 -7.1875 1.5 C-6.12595703 1.08234375 -6.12595703 1.08234375 -5.04296875 0.65625 C-3 0 -3 0 0 0 Z " fill="#F2FCF8" transform="translate(611,1035)"/>
<path d="M0 0 C0 25.41 0 50.82 0 77 C-3.96 77 -7.92 77 -12 77 C-12.02279891 69.58368951 -12.04105623 62.1673989 -12.05181217 54.75106049 C-12.05698038 51.30554376 -12.06396444 47.86005273 -12.07543945 44.41455078 C-12.17053406 15.12265021 -12.17053406 15.12265021 -11 2 C-3.375 0 -3.375 0 0 0 Z " fill="#E8F7F0" transform="translate(591,1048)"/>
<path d="M0 0 C0 22.11 0 44.22 0 67 C-3.63 67 -7.26 67 -11 67 C-11 45.88 -11 24.76 -11 3 C-2 0 -2 0 0 0 Z " fill="#F6FEFB" transform="translate(572,1057)"/>
<path d="M0 0 C0 33.33 0 66.66 0 101 C-3.96 101 -7.92 101 -12 101 C-12 84.17 -12 67.34 -12 50 C-11.67 50 -11.34 50 -11 50 C-11 66.17 -11 82.34 -11 99 C-8.03 99 -5.06 99 -2 99 C-2 66.99 -2 34.98 -2 2 C-2.99 1.67 -3.98 1.34 -5 1 C-3 0 -3 0 0 0 Z " fill="#C0EBD6" transform="translate(631,1024)"/>
<path d="M0 0 C0 30.36 0 60.72 0 92 C-0.66 91.67 -1.32 91.34 -2 91 C-2 61.96 -2 32.92 -2 3 C-2.99 2.67 -3.98 2.34 -5 2 C-2 0 -2 0 0 0 Z " fill="#C4EAD7" transform="translate(672,942)"/>
<path d="M0 0 C-0.32342377 0.54839539 -0.64684753 1.09679077 -0.98007202 1.6618042 C-2.17812999 4.40836491 -2.27690666 6.41934171 -2.31884766 9.41113281 C-2.33871735 10.49195129 -2.35858704 11.57276978 -2.37905884 12.68634033 C-2.39061005 13.84687927 -2.40216125 15.00741821 -2.4140625 16.203125 C-2.43342865 17.39605164 -2.4527948 18.58897827 -2.4727478 19.8180542 C-2.53253267 23.62863004 -2.57892527 27.4392361 -2.625 31.25 C-2.66318072 33.83334652 -2.7022325 36.41668032 -2.7421875 39 C-2.83823344 45.33322046 -2.92328436 51.66651749 -3 58 C-3.33 58 -3.66 58 -4 58 C-4 39.19 -4 20.38 -4 1 C-2 0 -2 0 0 0 Z " fill="#EBFFFA" transform="translate(686,934)"/>
<path d="M0 0 C-0.61875 0.28875 -1.2375 0.5775 -1.875 0.875 C-4.13325765 1.93720042 -4.13325765 1.93720042 -6 4 C-6.32997447 6.05907197 -6.32997447 6.05907197 -6.31884766 8.44970703 C-6.33871735 9.37051056 -6.35858704 10.29131409 -6.37905884 11.24002075 C-6.39061005 12.23589203 -6.40216125 13.23176331 -6.4140625 14.2578125 C-6.43342865 15.27600067 -6.4527948 16.29418884 -6.4727478 17.3432312 C-6.53265355 20.60373489 -6.57897299 23.86427367 -6.625 27.125 C-6.66316965 29.33204687 -6.70222077 31.53907869 -6.7421875 33.74609375 C-6.83836394 39.16392911 -6.92337899 44.58185473 -7 50 C-7.33 50 -7.66 50 -8 50 C-8 33.83 -8 17.66 -8 1 C-5.07175348 0.02391783 -3.04386724 -0.08226668 0 0 Z " fill="#F1FFFA" transform="translate(588,1049)"/>
<path d="M0 0 C0.66 0 1.32 0 2 0 C1.67 0.99 1.34 1.98 1 3 C0.88528988 4.61024513 0.8237226 6.22455855 0.79467773 7.83862305 C0.77473251 8.8194133 0.75478729 9.80020355 0.73423767 10.81071472 C0.70916893 12.39521172 0.70916893 12.39521172 0.68359375 14.01171875 C0.66281265 15.09508011 0.64203156 16.17844147 0.62062073 17.29463196 C0.55518203 20.75885616 0.49626647 24.2231568 0.4375 27.6875 C0.39430939 30.03451315 0.35069493 32.38151853 0.30664062 34.72851562 C0.19950643 40.48559604 0.09772936 46.24275267 0 52 C-0.33 52 -0.66 52 -1 52 C-1.02526739 44.75513449 -1.0428318 37.51028026 -1.05493164 30.26538086 C-1.05997356 27.79857967 -1.06680691 25.33178148 -1.07543945 22.86499023 C-1.08751125 19.32795471 -1.09322956 15.79095855 -1.09765625 12.25390625 C-1.10281754 11.14350479 -1.10797882 10.03310333 -1.11329651 8.88905334 C-1.11337204 7.86807053 -1.11344757 6.84708771 -1.11352539 5.79516602 C-1.115746 4.89137711 -1.11796661 3.9875882 -1.12025452 3.05641174 C-1 1 -1 1 0 0 Z " fill="#F3FFFB" transform="translate(702,924)"/>
<path d="M0 0 C0.66 0.33 1.32 0.66 2 1 C-3.61 6.61 -9.22 12.22 -15 18 C-15.66 17.67 -16.32 17.34 -17 17 C-11.62789574 10.92530665 -6.3343346 5.09500827 0 0 Z " fill="#001405" transform="translate(854,939)"/>
<path d="M0 0 C0.66 0.33 1.32 0.66 2 1 C-1.7109375 12.1328125 -1.7109375 12.1328125 -2.37255859 14.10791016 C-2.94980435 15.84863181 -3.5071179 17.59592986 -4.0625 19.34375 C-5.01242446 22.03520265 -6.16620785 23.83279109 -8 26 C-6.36231563 16.99273599 -3.13020303 8.57360642 0 0 Z " fill="#137A43" transform="translate(1539,981)"/>
<path d="M0 0 C0.66 0.33 1.32 0.66 2 1 C-1.96 4.96 -5.92 8.92 -10 13 C-10.66 12.67 -11.32 12.34 -12 12 C-8.27653164 7.57905197 -4.70478962 3.42166518 0 0 Z " fill="#001707" transform="translate(1329,927)"/>
<path d="M0 0 C0.66 0.33 1.32 0.66 2 1 C1.51917969 1.32613281 1.03835938 1.65226563 0.54296875 1.98828125 C-1.82372666 5.07397274 -1.57299527 8.44155967 -1.6875 12.1875 C-1.72166016 12.93708984 -1.75582031 13.68667969 -1.79101562 14.45898438 C-1.87334294 16.30546838 -1.93835281 18.15270994 -2 20 C-2.33 20 -2.66 20 -3 20 C-3.08069658 17.04112541 -3.14034665 14.0844341 -3.1875 11.125 C-3.21263672 10.28324219 -3.23777344 9.44148437 -3.26367188 8.57421875 C-3.27333984 7.76855469 -3.28300781 6.96289062 -3.29296875 6.1328125 C-3.3086792 5.38918457 -3.32438965 4.64555664 -3.34057617 3.87939453 C-3.22818604 3.25919434 -3.1157959 2.63899414 -3 2 C-2.01 1.34 -1.02 0.68 0 0 Z " fill="#F0FEF9" transform="translate(644,956)"/>
<path d="M0 0 C-0.31710937 0.54140625 -0.63421875 1.0828125 -0.9609375 1.640625 C-2.18307974 4.4157149 -2.40943436 6.73208098 -2.625 9.75 C-2.69976563 10.73484375 -2.77453125 11.7196875 -2.8515625 12.734375 C-2.90054688 13.48203125 -2.94953125 14.2296875 -3 15 C-3.33 15 -3.66 15 -4 15 C-4 10.38 -4 5.76 -4 1 C-2 0 -2 0 0 0 Z " fill="#E2FBF3" transform="translate(686,934)"/>
<path d="M0 0 C0.66 0 1.32 0 2 0 C1.67 0.99 1.34 1.98 1 3 C0.77281504 5.56634861 0.58391816 8.11678107 0.4375 10.6875 C0.39431641 11.38939453 0.35113281 12.09128906 0.30664062 12.81445312 C0.2008264 14.54275206 0.09993419 16.2713511 0 18 C-0.33 18 -0.66 18 -1 18 C-1.02684312 15.18743719 -1.04676188 12.37512759 -1.0625 9.5625 C-1.07087891 8.76005859 -1.07925781 7.95761719 -1.08789062 7.13085938 C-1.0965143 5.08704779 -1.0522815 3.04316098 -1 1 C-0.67 0.67 -0.34 0.34 0 0 Z " fill="#E9FCF6" transform="translate(702,924)"/>
<path d="M0 0 C-0.61875 0.28875 -1.2375 0.5775 -1.875 0.875 C-5.19776568 2.63411124 -6.45223399 4.68335854 -8 8 C-8 5.69 -8 3.38 -8 1 C-5.07175348 0.02391783 -3.04386724 -0.08226668 0 0 Z " fill="#DCF8EC" transform="translate(588,1049)"/>
<path d="M0 0 C0.66 0 1.32 0 2 0 C0.70700306 2.88437779 -0.65941363 4.87219421 -3 7 C-3.66 6.67 -4.32 6.34 -5 6 C-3.38405168 3.95880212 -1.7143618 1.95927063 0 0 Z " fill="#D6F4E6" transform="translate(1038,920)"/>
</svg>
